<svg xmlns="http://www.w3.org/2000/svg" width="60" height="60" viewBox="0 0 60 60">
  <g id="Group_565" data-name="Group 565" transform="translate(-653 -420)">
    <g id="Ellipse_48" data-name="Ellipse 48" transform="translate(653 420)" fill="#fff" stroke="#009500" stroke-width="2">
      <circle cx="30" cy="30" r="30" stroke="none"/>
      <circle cx="30" cy="30" r="29" fill="none"/>
    </g>
    <g id="Group_538" data-name="Group 538" transform="translate(-567.783 -131.783)">
      <path id="checked" d="M.322,14.805a1.037,1.037,0,0,1,0-1.5l1.5-1.5a1.037,1.037,0,0,1,1.5,0l.107.107,5.9,6.332a.519.519,0,0,0,.751,0L24.469,3.322h.107a1.037,1.037,0,0,1,1.5,0l1.5,1.5a1.037,1.037,0,0,1,0,1.5h0L10.41,24.142a1.037,1.037,0,0,1-1.5,0L.537,15.127l-.215-.322Z" transform="translate(1236.783 567.783)" fill="#009500"/>
    </g>
  </g>
</svg>
